<svg xmlns="http://www.w3.org/2000/svg" viewBox="0 0 18.67 19.99"><defs><style>.cls-1{fill:#fff;}.cls-2{fill:none;stroke:#fff;stroke-linecap:round;stroke-miterlimit:10;stroke-width:1.5px;}</style></defs><g id="Layer_2" data-name="Layer 2"><g id="Layer_1-2" data-name="Layer 1"><path class="cls-1" d="M2.38,3.25a2.1,2.1,0,0,0-.5-1.31A1.48,1.48,0,0,0,.8,1.5.76.76,0,0,1,0,.8.73.73,0,0,1,.68,0,2.94,2.94,0,0,1,3,.89,3.55,3.55,0,0,1,3.87,3,36.91,36.91,0,0,1,13,2.62c4.88.57,5.7,2.32,5.67,7.29,0,3-.92,4.4-3.46,5.44a15.06,15.06,0,0,1-4.86.62c-2.41,0-5-.32-6.33-1.07C1.38,13.41,2,7.35,2.38,3.25M3.75,4.57c0,.06,0,.12,0,.17-.37,3.16-.92,7.87.9,8.9,2,1.13,8.16,1.08,9.88.38C16.49,13.2,17,12.33,17,10c0-4.59-.54-5.35-4.35-5.79A36.19,36.19,0,0,0,3.75,4.57Z"/><path class="cls-1" d="M4.46,17.4a1.3,1.3,0,1,0,1.3,1.29A1.29,1.29,0,0,0,4.46,17.4Zm0,1.82a.53.53,0,0,1,0-1.06.53.53,0,0,1,0,1.06Z"/><path class="cls-1" d="M14.79,17.4a1.3,1.3,0,1,0,1.3,1.29A1.29,1.29,0,0,0,14.79,17.4Zm0,1.84a.55.55,0,0,1-.54-.55.54.54,0,0,1,.54-.54.55.55,0,0,1,.55.54A.55.55,0,0,1,14.79,19.24Z"/><line class="cls-2" x1="11.54" y1="8.73" x2="14.03" y2="8.73"/></g></g></svg>