<svg xmlns="http://www.w3.org/2000/svg" viewBox="0 0 17.88 20.16"><defs><style>.cls-1{fill:#fff;}</style></defs><g id="Layer_2" data-name="Layer 2"><g id="Layer_1-2" data-name="Layer 1"><path class="cls-1" d="M15.07,4.91a1.81,1.81,0,0,1,1.81,1.81V9H1V6.72A1.81,1.81,0,0,1,2.81,4.91H15.07m0-1H2.81A2.81,2.81,0,0,0,0,6.72V10H17.88V6.72a2.81,2.81,0,0,0-2.81-2.81Z"/><path class="cls-1" d="M17.88,10v7.4a2.81,2.81,0,0,1-2.81,2.81H2.81A2.81,2.81,0,0,1,0,17.35V10Z"/><path class="cls-1" d="M12.86,2a2,2,0,0,1-2,2H7a2,2,0,1,1,2-2,2,2,0,0,1,3.92,0Z"/></g></g></svg>